{"title":"Cradle 2 the Grave 2003 DVD9rip English Klam","uid":9952016,"size":2002981751,"categoryP":"video","categoryS":"movies","magnet":"?xt=urn:btih:2729117ad738672d3357715929daf2bab0401834&amp;dn=Cradle+2+the+Grave+2003+DVD9rip+English+Klam&amp;tr=udp%3A%2F%2Ftracker.openbittorrent.com%3A80&amp;tr=udp%3A%2F%2Fopen.demonii.com%3A1337&amp;tr=udp%3A%2F%2Ftracker.coppersurfer.tk%3A6969&amp;tr=udp%3A%2F%2Fexodus.desync.com%3A6969","seeders":1,"leechers":1,"uploader":"Klambake","files":-1,"time":1397415664,"description":"With: Jet Li, DMX and Mark Dacascos\n\nWanneer zijn dochter ontvoerd wordt om dure diamanten als losgeld te ontvangen begint de leider van een groep getalenteerde dieven een samenwerking met een Taiwanese officier. Hun race tegen de klok om de stenen te vinden leidt tot informatie over de distributie van een nieuw, erg dodelijk, wapen.\n\nA jewel thief's daughter is kidnapped after he steals a collection of prized black diamonds, which aren't at all what they seem.\n &lt;a href=&quot;\nhttp://www.imdb.com/title/tt0306685&quot; rel=&quot;nofollow&quot; target=&quot;_NEW&quot;&gt;\nhttp://www.imdb.com/title/tt0306685&lt;/a&gt;\t\n\n--------------------- Dutch Friends 4ever ---------------------\n---------------------------------------------------------------\n- Bezoek ook eens mijn vrienden op: &lt;a href=&quot; http://www.Film-Test.nl&quot; rel=&quot;nofollow&quot; target=&quot;_NEW&quot;&gt; http://www.Film-Test.nl&lt;/a&gt; --\n----- voor mijn Nederlandse Sync. ondertitels ---- en meer ----\n------- http://www.Film-Test.nl ---- Over Films en meer -------\n---------------------------------------------------------------\n\nGeneral:\n\nComplete name                            : Cradle 2 the GraveCradle 2 the Grave.avi\nFormat                                   : AVI\nFormat/Info                              : Audio Video Interleave\nFile size                                : 1.87 GiB\nDuration                                 : 1h 41mn\nOverall bit rate                         : 2 638 Kbps\n\nVideo:\n\nFormat                                   : MPEG-4 Visual\nFormat profile                           : Simple@L3\nFormat settings, BVOP                    : No\nFormat settings, QPel                    : No\nFormat settings, GMC                     : No warppoints\nFormat settings, Matrix                  : Default (H.263)\nCodec ID                                 : XVID\nCodec ID/Hint                            : XviD\nDuration                                 : 1h 41mn\nSource duration                          : 1h 41mn\nBit rate                                 : 2 179 Kbps\nWidth                                    : 720 pixels\nHeight                                   : 304 pixels\nDisplay aspect ratio                     : 2.35:1\nFrame rate                               : 25.000 fps\nColor space                              : YUV\nChroma subsampling                       : 4:2:0\nBit depth                                : 8 bits\nScan type                                : Progressive\nCompression mode                         : Lossy\nBits/(Pixel*Frame)                       : 0.398\nStream size                              : 1.54 GiB (83%)\nWriting library                          : XviD 1.1.2 (UTC 2006-11-01)\n\nAudio:\n\nFormat                                   : AC-3\nFormat/Info                              : Audio Coding 3\nMode extension                           : CM (complete main)\nFormat settings, Endianness              : Big\nCodec ID                                 : 2000\nDuration                                 : 1h 41mn\nBit rate mode                            : Constant\nBit rate                                 : 448 Kbps\nChannel(s)                               : 6 channels\nChannel positions                        : Front: L C R, Side: L R, LFE\nSampling rate                            : 48.0 KHz\nBit depth                                : 16 bits\nCompression mode                         : Lossy\nStream size                              : 324 MiB (17%)\nAlignment                                : Aligned on interleaves\nInterleave, duration                     : 32 ms (0.80 video frame)\nInterleave, preload duration             : 1024 ms\n\n\n","torrent":{"xt":"urn:btih:2729117ad738672d3357715929daf2bab0401834","amp;dn":"Cradle+2+the+Grave+2003+DVD9rip+English+Klam","amp;tr":["udp%3A%2F%2Ftracker.openbittorrent.com%3A80","udp%3A%2F%2Fopen.demonii.com%3A1337","udp%3A%2F%2Ftracker.coppersurfer.tk%3A6969","udp%3A%2F%2Fexodus.desync.com%3A6969"],"infoHash":"2729117ad738672d3357715929daf2bab0401834","infoHashBuffer":{"type":"Buffer","data":[39,41,17,122,215,56,103,45,51,87,113,89,41,218,242,186,176,64,24,52]},"announce":[],"urlList":[]}}